<svg width="36" height="36" viewBox="0 0 36 36" fill="none" xmlns="http://www.w3.org/2000/svg">
<g id="edit_FILL0_wght400_GRAD0_opsz48 1">
<path id="Vector" d="M6.75 29.25H8.4L25.0125 12.6375L23.3625 10.9875L6.75 27.6V29.25ZM29.775 11.025L24.975 6.225L26.55 4.65C26.975 4.225 27.5 4.0125 28.125 4.0125C28.75 4.0125 29.275 4.225 29.7 4.65L31.35 6.3C31.775 6.725 31.9875 7.25 31.9875 7.875C31.9875 8.5 31.775 9.025 31.35 9.45L29.775 11.025ZM28.2 12.6L9.3 31.5H4.5V26.7L23.4 7.8L28.2 12.6ZM24.1875 11.8125L23.3625 10.9875L25.0125 12.6375L24.1875 11.8125Z" fill="#55A3FF"/>
</g>
</svg>
