<svg xmlns="http://www.w3.org/2000/svg" xmlns:xlink="http://www.w3.org/1999/xlink" width="100" zoomAndPan="magnify" viewBox="0 0 75 74.999997" height="100" preserveAspectRatio="xMidYMid meet" version="1.0"><defs><clipPath id="4988359169"><path d="M 0 3.234375 L 75 3.234375 L 75 71.484375 L 0 71.484375 Z M 0 3.234375 " clip-rule="nonzero"/></clipPath></defs><path fill="#FFFFFF" d="M 46.171875 32.769531 L 49.660156 34.808594 L 56.648438 30.734375 L 46.171875 24.367188 Z M 46.171875 32.769531 " fill-opacity="1" fill-rule="nonzero"/><g clip-path="url(#4988359169)"><path fill="#FFFFFF" d="M 67.375 19.78125 L 69.871094 15.195312 C 71.867188 11.628906 66.128906 7.554688 63.382812 6.027344 C 60.640625 4.5 54.402344 1.1875 52.40625 5.007812 L 48.914062 11.121094 C 45.417969 10.359375 41.425781 9.847656 37.4375 9.847656 C 16.726562 9.847656 0.0117188 21.3125 0.0117188 35.320312 C 0.0117188 49.324219 16.726562 60.789062 37.4375 60.789062 C 37.4375 60.789062 37.4375 60.789062 37.6875 60.789062 C 37.9375 63.84375 34.445312 68.9375 29.453125 71.484375 C 49.164062 71.484375 58.144531 56.457031 58.144531 56.457031 C 68.125 51.871094 74.613281 44.230469 74.613281 35.316406 C 75.109375 29.460938 72.117188 24.109375 67.375 19.78125 Z M 17.226562 42.453125 C 15.230469 42.453125 13.734375 40.921875 13.734375 38.882812 C 13.734375 36.84375 15.230469 35.316406 17.226562 35.316406 C 19.222656 35.316406 20.71875 36.84375 20.71875 38.882812 C 20.71875 40.921875 18.972656 42.453125 17.226562 42.453125 Z M 26.457031 42.453125 C 24.460938 42.453125 22.964844 40.921875 22.964844 38.882812 C 22.964844 36.84375 24.460938 35.316406 26.457031 35.316406 C 28.453125 35.316406 29.949219 36.84375 29.949219 38.882812 C 29.949219 40.921875 28.453125 42.453125 26.457031 42.453125 Z M 35.691406 42.453125 C 33.695312 42.453125 32.195312 40.921875 32.195312 38.882812 C 32.195312 36.84375 33.695312 35.316406 35.691406 35.316406 C 37.6875 35.316406 39.183594 36.84375 39.183594 38.882812 C 39.183594 40.921875 37.6875 42.453125 35.691406 42.453125 Z M 57.894531 31.496094 L 50.660156 35.574219 L 44.671875 38.882812 L 44.671875 23.601562 L 54.652344 6.027344 C 55.152344 5.007812 58.644531 6.027344 62.386719 8.066406 C 66.128906 10.101562 68.625 12.648438 67.875 13.667969 Z M 57.894531 31.496094 " fill-opacity="1" fill-rule="nonzero"/></g></svg>
