<svg width="67" height="31" viewBox="0 0 67 31" fill="none" xmlns="http://www.w3.org/2000/svg">
<path d="M20.9347 13.416L22.5184 14.3415L25.6868 12.4905L20.9347 9.59869V13.416Z" fill="black"/>
<path d="M30.5526 7.51522L31.6842 5.43329C32.589 3.8131 29.9873 1.96204 28.7421 1.26893C27.4969 0.574266 24.6689 -0.929719 23.7637 0.806165L22.1789 3.58275C20.5942 3.23568 18.7837 3.0043 16.9737 3.0043C7.58158 3.00378 0 8.2104 0 14.5734C0 20.9354 7.58158 26.1415 16.9737 26.1415C16.9737 26.1415 16.9737 26.1415 17.0873 26.1415C17.2005 27.5298 15.6163 29.8436 13.3526 31C22.2931 31 26.3663 24.1742 26.3663 24.1742C30.8921 22.0918 33.8342 18.621 33.8342 14.5719C34.0605 11.912 32.7026 9.48248 30.5526 7.51522ZM7.80739 17.8128C6.90212 17.8128 6.22318 17.1176 6.22318 16.1921C6.22318 15.2665 6.90212 14.5724 7.80739 14.5724C8.71265 14.5724 9.3916 15.2665 9.3916 16.1921C9.3916 17.1176 8.6005 17.8128 7.80739 17.8128ZM11.9942 17.8128C11.089 17.8128 10.41 17.1176 10.41 16.1921C10.41 15.2665 11.089 14.5724 11.9942 14.5724C12.8995 14.5724 13.5784 15.2665 13.5784 16.1921C13.5784 17.1176 12.8995 17.8128 11.9942 17.8128ZM16.1816 17.8128C15.2763 17.8128 14.5969 17.1176 14.5969 16.1921C14.5969 15.2665 15.2763 14.5724 16.1816 14.5724C17.0868 14.5724 17.7658 15.2665 17.7658 16.1921C17.7658 17.1176 17.0868 17.8128 16.1816 17.8128ZM26.2531 12.8375L22.9715 14.6886L20.2553 16.1921V9.2511L24.7821 1.26841C25.0079 0.805648 26.5926 1.26841 28.2895 2.19394C29.9863 3.11947 31.1184 4.27587 30.7789 4.73915L26.2531 12.8375Z" fill="black"/>
<path d="M53.8919 20.4458L49.8965 15.0801V20.4458H47.0015V8.29511H49.8965V13.6262L53.858 8.29511H57.2609L52.656 14.2493L57.4302 20.4458H53.8919Z" fill="black"/>
<path d="M61.8872 18.0226H67V20.4458H58.6029V18.1957L63.6818 10.7183H58.6029V8.29511H67V10.5452L61.8872 18.0226Z" fill="black"/>
</svg>
