<svg xmlns="http://www.w3.org/2000/svg" xmlns:xlink="http://www.w3.org/1999/xlink" width="1920" zoomAndPan="magnify" viewBox="0 0 1440 809.999993" height="1080" preserveAspectRatio="xMidYMid meet" version="1.0"><defs><g/><clipPath id="598536191f"><path d="M 515.042969 153 L 920 153 L 920 463 L 515.042969 463 Z M 515.042969 153 " clip-rule="nonzero"/></clipPath></defs><rect x="-144" width="1728" fill="#ffffff" y="-80.999999" height="971.999992" fill-opacity="1"/><rect x="-144" width="1728" fill="#ffffff" y="-80.999999" height="971.999992" fill-opacity="1"/><rect x="-144" width="1728" fill="#d9d9d9" y="-80.999999" height="971.999992" fill-opacity="1"/><g clip-path="url(#598536191f)"><path fill="#000000" d="M 831.007812 270.164062 C 830.808594 268.140625 830.558594 266.121094 830.265625 264.109375 C 829.96875 262.09375 829.625 260.089844 829.234375 258.09375 C 828.84375 256.097656 828.40625 254.109375 827.921875 252.136719 C 827.4375 250.160156 826.90625 248.195312 826.328125 246.246094 C 825.75 244.296875 825.128906 242.359375 824.460938 240.4375 C 823.789062 238.515625 823.074219 236.613281 822.316406 234.726562 C 821.558594 232.835938 820.753906 230.96875 819.90625 229.121094 C 819.058594 227.269531 818.164062 225.441406 817.230469 223.636719 C 816.296875 221.828125 815.320312 220.042969 814.300781 218.285156 C 813.28125 216.523438 812.222656 214.785156 811.121094 213.074219 C 810.019531 211.363281 808.878906 209.679688 807.699219 208.023438 C 806.515625 206.367188 805.296875 204.738281 804.039062 203.140625 C 802.78125 201.542969 801.484375 199.972656 800.152344 198.4375 C 798.820312 196.898438 797.453125 195.390625 796.050781 193.917969 C 794.644531 192.445312 793.207031 191.007812 791.734375 189.601562 C 790.265625 188.199219 788.761719 186.828125 787.222656 185.496094 C 785.6875 184.160156 784.117188 182.863281 782.519531 181.605469 C 780.921875 180.34375 779.296875 179.125 777.640625 177.941406 C 775.984375 176.757812 774.300781 175.617188 772.589844 174.511719 C 770.878906 173.410156 769.144531 172.347656 767.386719 171.328125 C 765.625 170.304688 763.839844 169.328125 762.035156 168.390625 C 760.226562 167.457031 758.398438 166.5625 756.550781 165.710938 C 754.703125 164.863281 752.832031 164.054688 750.945312 163.296875 C 749.058594 162.535156 747.15625 161.816406 745.234375 161.144531 C 743.3125 160.472656 741.378906 159.847656 739.425781 159.269531 C 737.476562 158.6875 735.511719 158.15625 733.535156 157.667969 C 731.558594 157.183594 729.574219 156.742188 727.578125 156.351562 C 725.578125 155.957031 723.574219 155.613281 721.5625 155.3125 C 719.546875 155.015625 717.53125 154.765625 715.503906 154.5625 C 713.480469 154.359375 711.449219 154.207031 709.417969 154.101562 C 707.386719 153.992188 705.351562 153.9375 703.316406 153.925781 C 701.28125 153.914062 699.246094 153.953125 697.214844 154.039062 C 695.179688 154.125 693.152344 154.261719 691.125 154.441406 C 689.097656 154.625 687.074219 154.855469 685.058594 155.132812 C 683.042969 155.410156 681.035156 155.734375 679.035156 156.109375 C 677.035156 156.480469 675.042969 156.902344 673.0625 157.367188 C 671.082031 157.835938 669.113281 158.351562 667.15625 158.910156 C 665.199219 159.46875 663.257812 160.078125 661.332031 160.730469 C 659.402344 161.382812 657.492188 162.078125 655.597656 162.820312 C 653.703125 163.5625 651.828125 164.351562 649.96875 165.183594 C 648.113281 166.015625 646.273438 166.890625 644.457031 167.808594 C 642.644531 168.726562 640.851562 169.6875 639.078125 170.691406 C 637.308594 171.691406 635.5625 172.738281 633.84375 173.824219 C 632.121094 174.910156 630.425781 176.035156 628.757812 177.203125 C 627.089844 178.367188 625.453125 179.574219 623.84375 180.816406 C 622.230469 182.058594 620.652344 183.339844 619.101562 184.660156 C 617.550781 185.976562 616.035156 187.332031 614.546875 188.722656 C 613.0625 190.113281 611.609375 191.539062 610.191406 192.996094 C 608.773438 194.457031 607.390625 195.945312 606.042969 197.472656 C 604.695312 198.996094 603.386719 200.550781 602.109375 202.136719 C 600.835938 203.722656 599.601562 205.339844 598.402344 206.984375 C 597.207031 208.628906 596.046875 210.300781 594.929688 212 C 593.8125 213.703125 592.734375 215.425781 591.699219 217.175781 C 590.660156 218.929688 589.667969 220.703125 588.714844 222.5 C 587.761719 224.296875 586.851562 226.117188 585.988281 227.957031 C 585.121094 229.796875 584.296875 231.660156 583.519531 233.539062 C 582.742188 235.417969 582.007812 237.316406 581.320312 239.230469 C 580.632812 241.144531 579.988281 243.074219 579.394531 245.019531 C 578.796875 246.964844 578.246094 248.921875 577.742188 250.890625 C 577.238281 252.863281 576.78125 254.84375 576.371094 256.835938 C 575.960938 258.832031 575.597656 260.832031 575.28125 262.839844 C 574.964844 264.851562 574.699219 266.867188 574.476562 268.890625 C 574.257812 270.910156 574.085938 272.9375 573.960938 274.96875 C 573.835938 277 573.761719 279.03125 573.734375 281.066406 C 573.734375 288.070312 574.316406 295.023438 575.480469 301.929688 C 573.316406 302.550781 571.179688 303.261719 569.070312 304.054688 C 566.964844 304.851562 564.890625 305.730469 562.855469 306.691406 C 560.816406 307.65625 558.820312 308.699219 556.871094 309.824219 C 554.917969 310.945312 553.011719 312.148438 551.160156 313.425781 C 549.304688 314.703125 547.503906 316.054688 545.757812 317.476562 C 544.011719 318.902344 542.324219 320.394531 540.699219 321.953125 C 539.074219 323.515625 537.515625 325.136719 536.023438 326.824219 C 534.527344 328.511719 533.105469 330.253906 531.753906 332.054688 C 530.402344 333.855469 529.125 335.710938 527.921875 337.613281 C 526.71875 339.519531 525.597656 341.46875 524.550781 343.464844 C 523.507812 345.460938 522.546875 347.496094 521.664062 349.570312 C 520.785156 351.640625 519.992188 353.746094 519.28125 355.886719 C 518.574219 358.023438 517.953125 360.1875 517.417969 362.375 C 516.882812 364.5625 516.4375 366.769531 516.082031 368.992188 C 515.726562 371.214844 515.464844 373.449219 515.289062 375.695312 C 515.113281 377.941406 515.03125 380.191406 515.039062 382.441406 C 515.046875 384.695312 515.144531 386.941406 515.335938 389.1875 C 515.523438 391.433594 515.804688 393.664062 516.175781 395.886719 C 516.546875 398.109375 517.007812 400.3125 517.554688 402.496094 C 518.105469 404.679688 518.738281 406.835938 519.464844 408.972656 C 520.1875 411.105469 520.996094 413.203125 521.890625 415.269531 C 522.785156 417.339844 523.761719 419.367188 524.816406 421.355469 C 525.875 423.34375 527.011719 425.285156 528.226562 427.183594 C 529.441406 429.078125 530.734375 430.921875 532.097656 432.714844 C 533.460938 434.507812 534.898438 436.242188 536.402344 437.917969 C 537.90625 439.59375 539.476562 441.207031 541.113281 442.753906 C 542.75 444.304688 544.445312 445.785156 546.199219 447.195312 C 547.957031 448.609375 549.765625 449.945312 551.628906 451.210938 C 553.492188 452.476562 555.40625 453.664062 557.363281 454.777344 C 559.324219 455.886719 561.328125 456.917969 563.371094 457.863281 C 565.414062 458.8125 567.492188 459.679688 569.605469 460.457031 C 571.71875 461.238281 573.859375 461.933594 576.03125 462.539062 C 576.734375 462.679688 577.441406 462.75 578.160156 462.757812 C 578.875 462.761719 579.585938 462.703125 580.289062 462.574219 C 580.996094 462.449219 581.683594 462.261719 582.351562 462.007812 C 583.019531 461.753906 583.660156 461.4375 584.273438 461.066406 C 584.882812 460.695312 585.457031 460.269531 585.988281 459.789062 C 586.519531 459.308594 587.003906 458.785156 587.4375 458.21875 C 587.871094 457.648438 588.25 457.042969 588.574219 456.40625 C 588.894531 455.765625 589.15625 455.101562 589.355469 454.414062 C 589.554688 453.726562 589.6875 453.027344 589.757812 452.316406 C 589.824219 451.601562 589.828125 450.890625 589.765625 450.179688 C 589.703125 449.464844 589.574219 448.765625 589.378906 448.074219 C 589.183594 447.386719 588.929688 446.722656 588.609375 446.078125 C 588.292969 445.4375 587.917969 444.832031 587.488281 444.257812 C 587.058594 443.6875 586.578125 443.160156 586.050781 442.675781 C 585.519531 442.195312 584.953125 441.765625 584.34375 441.386719 C 583.734375 441.011719 583.097656 440.691406 582.429688 440.433594 C 580.761719 439.972656 579.113281 439.441406 577.488281 438.839844 C 575.867188 438.234375 574.269531 437.566406 572.703125 436.824219 C 571.136719 436.085938 569.605469 435.28125 568.109375 434.410156 C 566.613281 433.542969 565.15625 432.609375 563.738281 431.613281 C 562.320312 430.617188 560.949219 429.5625 559.621094 428.449219 C 558.296875 427.335938 557.019531 426.167969 555.792969 424.945312 C 554.566406 423.722656 553.394531 422.449219 552.277344 421.128906 C 551.160156 419.804688 550.101562 418.4375 549.101562 417.023438 C 548.101562 415.609375 547.164062 414.152344 546.289062 412.660156 C 545.414062 411.164062 544.605469 409.636719 543.863281 408.074219 C 543.117188 406.507812 542.441406 404.917969 541.835938 403.296875 C 541.230469 401.675781 540.691406 400.03125 540.226562 398.363281 C 539.761719 396.695312 539.367188 395.011719 539.046875 393.308594 C 538.722656 391.605469 538.476562 389.894531 538.300781 388.171875 C 538.128906 386.449219 538.027344 384.722656 538 382.992188 C 537.976562 381.261719 538.023438 379.53125 538.144531 377.804688 C 538.265625 376.078125 538.464844 374.359375 538.734375 372.648438 C 539.003906 370.9375 539.34375 369.242188 539.761719 367.5625 C 540.175781 365.882812 540.664062 364.222656 541.21875 362.582031 C 541.777344 360.941406 542.40625 359.332031 543.101562 357.746094 C 543.796875 356.160156 544.558594 354.605469 545.386719 353.085938 C 546.21875 351.566406 547.109375 350.085938 548.066406 348.640625 C 549.023438 347.199219 550.039062 345.796875 551.117188 344.441406 C 552.195312 343.085938 553.328125 341.777344 554.515625 340.519531 C 555.703125 339.261719 556.945312 338.054688 558.238281 336.902344 C 559.53125 335.75 560.867188 334.652344 562.253906 333.617188 C 563.640625 332.578125 565.070312 331.601562 566.539062 330.6875 C 568.011719 329.769531 569.515625 328.917969 571.058594 328.132812 C 572.605469 327.347656 574.175781 326.628906 575.78125 325.976562 C 577.386719 325.328125 579.015625 324.746094 580.671875 324.234375 C 582.328125 323.722656 584 323.28125 585.691406 322.914062 C 587.386719 322.546875 589.089844 322.25 590.808594 322.03125 C 591.210938 321.96875 591.609375 321.890625 592.003906 321.789062 C 592.394531 321.6875 592.785156 321.566406 593.164062 321.421875 C 593.546875 321.28125 593.917969 321.117188 594.28125 320.9375 C 594.644531 320.753906 595 320.554688 595.339844 320.335938 C 595.683594 320.117188 596.011719 319.878906 596.332031 319.625 C 596.648438 319.371094 596.953125 319.101562 597.242188 318.816406 C 597.53125 318.53125 597.804688 318.230469 598.0625 317.914062 C 598.316406 317.601562 598.558594 317.273438 598.78125 316.933594 C 599.003906 316.59375 599.207031 316.242188 599.394531 315.878906 C 599.578125 315.519531 599.746094 315.148438 599.890625 314.769531 C 600.039062 314.390625 600.164062 314.003906 600.269531 313.613281 C 600.378906 313.21875 600.460938 312.824219 600.527344 312.421875 C 600.589844 312.019531 600.632812 311.617188 600.652344 311.210938 C 600.675781 310.804688 600.675781 310.398438 600.652344 309.992188 C 600.632812 309.585938 600.589844 309.183594 600.527344 308.78125 C 600.460938 308.378906 600.375 307.984375 600.269531 307.589844 C 597.914062 298.847656 596.738281 289.949219 596.746094 280.890625 C 596.773438 279.179688 596.84375 277.464844 596.957031 275.757812 C 597.066406 274.046875 597.21875 272.339844 597.414062 270.636719 C 597.609375 268.933594 597.84375 267.238281 598.121094 265.542969 C 598.398438 263.851562 598.714844 262.167969 599.074219 260.492188 C 599.433594 258.816406 599.832031 257.152344 600.273438 255.496094 C 600.710938 253.839844 601.191406 252.191406 601.710938 250.558594 C 602.230469 248.925781 602.792969 247.308594 603.390625 245.699219 C 603.988281 244.09375 604.625 242.503906 605.300781 240.929688 C 605.976562 239.355469 606.691406 237.796875 607.441406 236.253906 C 608.191406 234.714844 608.980469 233.191406 609.808594 231.691406 C 610.632812 230.1875 611.492188 228.707031 612.390625 227.246094 C 613.289062 225.785156 614.222656 224.347656 615.1875 222.933594 C 616.15625 221.519531 617.15625 220.128906 618.191406 218.761719 C 619.226562 217.394531 620.292969 216.054688 621.394531 214.738281 C 622.492188 213.425781 623.625 212.136719 624.789062 210.875 C 625.949219 209.617188 627.144531 208.386719 628.367188 207.183594 C 629.585938 205.984375 630.839844 204.8125 632.117188 203.667969 C 633.398438 202.527344 634.703125 201.417969 636.035156 200.339844 C 637.371094 199.265625 638.730469 198.21875 640.113281 197.207031 C 641.496094 196.195312 642.90625 195.21875 644.335938 194.273438 C 645.769531 193.332031 647.222656 192.421875 648.695312 191.550781 C 650.171875 190.679688 651.667969 189.839844 653.183594 189.042969 C 654.703125 188.242188 656.238281 187.476562 657.789062 186.753906 C 659.34375 186.027344 660.914062 185.339844 662.5 184.691406 C 664.085938 184.039062 665.6875 183.429688 667.304688 182.859375 C 668.921875 182.289062 670.550781 181.753906 672.195312 181.261719 C 673.835938 180.769531 675.488281 180.316406 677.152344 179.90625 C 678.816406 179.492188 680.492188 179.121094 682.171875 178.792969 C 683.855469 178.460938 685.546875 178.171875 687.242188 177.921875 C 688.9375 177.671875 690.640625 177.464844 692.347656 177.300781 C 694.054688 177.132812 695.761719 177.007812 697.476562 176.925781 C 699.1875 176.839844 700.902344 176.800781 702.617188 176.800781 C 704.332031 176.800781 706.042969 176.839844 707.757812 176.925781 C 709.46875 177.007812 711.179688 177.132812 712.886719 177.300781 C 714.59375 177.464844 716.292969 177.671875 717.988281 177.921875 C 719.6875 178.171875 721.375 178.460938 723.058594 178.792969 C 724.742188 179.121094 726.414062 179.492188 728.078125 179.90625 C 729.742188 180.316406 731.394531 180.769531 733.039062 181.261719 C 734.679688 181.753906 736.308594 182.289062 737.925781 182.859375 C 739.542969 183.429688 741.144531 184.039062 742.730469 184.691406 C 744.320312 185.339844 745.890625 186.027344 747.441406 186.753906 C 748.996094 187.476562 750.53125 188.242188 752.046875 189.042969 C 753.5625 189.839844 755.058594 190.679688 756.535156 191.550781 C 758.011719 192.421875 759.464844 193.332031 760.894531 194.273438 C 762.328125 195.21875 763.734375 196.195312 765.117188 197.207031 C 766.503906 198.21875 767.863281 199.265625 769.195312 200.339844 C 770.527344 201.417969 771.835938 202.527344 773.113281 203.667969 C 774.394531 204.8125 775.644531 205.984375 776.867188 207.183594 C 778.089844 208.386719 779.28125 209.617188 780.445312 210.875 C 781.605469 212.136719 782.738281 213.425781 783.839844 214.738281 C 784.9375 216.054688 786.003906 217.394531 787.039062 218.761719 C 788.074219 220.128906 789.078125 221.519531 790.042969 222.933594 C 791.011719 224.347656 791.941406 225.785156 792.839844 227.246094 C 793.738281 228.707031 794.597656 230.1875 795.425781 231.691406 C 796.25 233.191406 797.039062 234.714844 797.789062 236.253906 C 798.542969 237.796875 799.253906 239.355469 799.929688 240.929688 C 800.605469 242.503906 801.242188 244.09375 801.84375 245.699219 C 802.441406 247.308594 803 248.925781 803.519531 250.558594 C 804.039062 252.191406 804.519531 253.839844 804.957031 255.496094 C 805.398438 257.152344 805.796875 258.816406 806.15625 260.492188 C 806.515625 262.167969 806.832031 263.851562 807.109375 265.542969 C 807.386719 267.238281 807.625 268.933594 807.816406 270.636719 C 808.011719 272.339844 808.164062 274.046875 808.277344 275.757812 C 808.386719 277.464844 808.457031 279.179688 808.488281 280.890625 C 808.488281 281.652344 808.558594 282.402344 808.707031 283.144531 C 808.855469 283.890625 809.074219 284.613281 809.367188 285.3125 C 809.65625 286.011719 810.011719 286.679688 810.433594 287.308594 C 810.855469 287.941406 811.335938 288.523438 811.871094 289.058594 C 812.40625 289.597656 812.992188 290.074219 813.621094 290.496094 C 814.253906 290.917969 814.917969 291.273438 815.621094 291.5625 C 816.320312 291.855469 817.042969 292.074219 817.789062 292.222656 C 818.53125 292.371094 819.285156 292.445312 820.042969 292.445312 C 822.199219 292.410156 824.351562 292.464844 826.5 292.617188 C 828.652344 292.765625 830.792969 293.011719 832.921875 293.34375 C 835.050781 293.679688 837.164062 294.105469 839.257812 294.621094 C 841.347656 295.136719 843.417969 295.742188 845.457031 296.4375 C 847.496094 297.128906 849.503906 297.910156 851.480469 298.777344 C 853.453125 299.644531 855.386719 300.59375 857.277344 301.628906 C 859.167969 302.660156 861.011719 303.773438 862.808594 304.964844 C 864.605469 306.15625 866.347656 307.425781 868.03125 308.765625 C 869.71875 310.109375 871.347656 311.519531 872.910156 313 C 874.476562 314.484375 875.976562 316.03125 877.40625 317.640625 C 878.839844 319.25 880.199219 320.921875 881.488281 322.648438 C 882.777344 324.375 883.988281 326.15625 885.121094 327.988281 C 886.257812 329.820312 887.3125 331.699219 888.285156 333.621094 C 889.257812 335.542969 890.148438 337.503906 890.953125 339.503906 C 891.757812 341.503906 892.472656 343.535156 893.101562 345.59375 C 893.730469 347.65625 894.273438 349.738281 894.722656 351.847656 C 895.171875 353.953125 895.53125 356.078125 895.796875 358.214844 C 896.0625 360.355469 896.238281 362.5 896.320312 364.652344 C 896.402344 366.804688 896.394531 368.960938 896.289062 371.113281 C 896.1875 373.265625 895.992188 375.40625 895.703125 377.542969 C 895.414062 379.679688 895.035156 381.796875 894.566406 383.902344 C 894.097656 386.003906 893.535156 388.082031 892.886719 390.136719 C 892.238281 392.191406 891.5 394.214844 890.675781 396.207031 C 889.851562 398.199219 888.945312 400.152344 887.953125 402.066406 C 886.960938 403.976562 885.890625 405.84375 884.738281 407.667969 C 883.585938 409.488281 882.355469 411.253906 881.050781 412.96875 C 879.746094 414.6875 878.367188 416.339844 876.921875 417.9375 C 875.472656 419.535156 873.960938 421.066406 872.378906 422.535156 C 870.800781 424 869.160156 425.394531 867.460938 426.722656 C 865.761719 428.046875 864.007812 429.296875 862.199219 430.472656 C 860.394531 431.644531 858.539062 432.742188 856.636719 433.753906 C 854.734375 434.769531 852.792969 435.703125 850.8125 436.550781 C 850.046875 436.796875 849.3125 437.121094 848.613281 437.523438 C 847.917969 437.925781 847.265625 438.394531 846.667969 438.929688 C 846.066406 439.46875 845.527344 440.0625 845.050781 440.710938 C 844.578125 441.359375 844.171875 442.050781 843.839844 442.785156 C 843.511719 443.519531 843.257812 444.28125 843.085938 445.066406 C 842.914062 445.851562 842.824219 446.648438 842.820312 447.453125 C 842.8125 448.257812 842.890625 449.054688 843.050781 449.84375 C 843.210938 450.632812 843.453125 451.398438 843.773438 452.136719 C 844.09375 452.875 844.488281 453.574219 844.953125 454.230469 C 845.421875 454.886719 845.949219 455.488281 846.542969 456.03125 C 847.136719 456.578125 847.777344 457.054688 848.46875 457.46875 C 849.164062 457.878906 849.890625 458.214844 850.652344 458.472656 C 851.414062 458.734375 852.195312 458.910156 852.996094 459.007812 C 853.796875 459.105469 854.597656 459.117188 855.398438 459.042969 C 856.199219 458.972656 856.988281 458.820312 857.757812 458.585938 C 858.527344 458.347656 859.265625 458.035156 859.96875 457.644531 C 862.453125 456.589844 864.886719 455.433594 867.273438 454.175781 C 869.660156 452.917969 871.992188 451.5625 874.265625 450.113281 C 876.542969 448.664062 878.753906 447.121094 880.902344 445.488281 C 883.046875 443.855469 885.125 442.136719 887.132812 440.332031 C 889.136719 438.53125 891.0625 436.644531 892.914062 434.683594 C 894.765625 432.71875 896.53125 430.683594 898.210938 428.574219 C 899.894531 426.464844 901.484375 424.289062 902.988281 422.050781 C 904.488281 419.808594 905.894531 417.511719 907.207031 415.152344 C 908.519531 412.796875 909.730469 410.390625 910.84375 407.933594 C 911.957031 405.476562 912.96875 402.976562 913.875 400.4375 C 914.78125 397.898438 915.582031 395.324219 916.273438 392.71875 C 916.96875 390.109375 917.554688 387.480469 918.03125 384.824219 C 918.507812 382.171875 918.875 379.5 919.128906 376.816406 C 919.386719 374.132812 919.53125 371.441406 919.5625 368.742188 C 919.597656 366.046875 919.519531 363.351562 919.328125 360.664062 C 919.140625 357.972656 918.839844 355.292969 918.429688 352.628906 C 918.019531 349.960938 917.5 347.320312 916.871094 344.695312 C 916.242188 342.074219 915.503906 339.480469 914.660156 336.917969 C 913.820312 334.355469 912.871094 331.835938 911.820312 329.351562 C 910.765625 326.867188 909.613281 324.429688 908.363281 322.042969 C 907.109375 319.652344 905.757812 317.320312 904.3125 315.042969 C 902.867188 312.765625 901.328125 310.554688 899.699219 308.402344 C 898.070312 306.253906 896.355469 304.171875 894.554688 302.164062 C 892.753906 300.15625 890.875 298.226562 888.914062 296.371094 C 886.953125 294.519531 884.921875 292.75 882.816406 291.0625 C 880.707031 289.378906 878.535156 287.785156 876.296875 286.277344 C 874.058594 284.769531 871.761719 283.359375 869.40625 282.042969 C 867.050781 280.726562 864.648438 279.511719 862.191406 278.394531 C 859.734375 277.277344 857.238281 276.261719 854.699219 275.347656 C 852.160156 274.4375 849.585938 273.632812 846.980469 272.933594 C 844.375 272.234375 841.746094 271.644531 839.089844 271.164062 C 836.433594 270.679688 833.765625 270.308594 831.078125 270.046875 Z M 831.007812 270.164062 " fill-opacity="1" fill-rule="evenodd"/></g><path fill="#000000" d="M 636.859375 271.042969 C 637.386719 269.152344 637.988281 267.285156 638.667969 265.441406 C 639.34375 263.601562 640.097656 261.789062 640.925781 260.007812 C 641.75 258.226562 642.648438 256.480469 643.617188 254.773438 C 644.585938 253.066406 645.621094 251.398438 646.726562 249.777344 C 647.832031 248.152344 649 246.578125 650.234375 245.046875 C 651.464844 243.519531 652.757812 242.046875 654.113281 240.621094 C 655.46875 239.199219 656.875 237.835938 658.339844 236.527344 C 659.804688 235.21875 661.324219 233.972656 662.890625 232.789062 C 664.457031 231.605469 666.066406 230.488281 667.726562 229.433594 C 669.382812 228.382812 671.082031 227.398438 672.820312 226.484375 C 674.558594 225.570312 676.332031 224.726562 678.140625 223.957031 C 679.945312 223.1875 681.78125 222.492188 683.644531 221.875 C 685.507812 221.253906 687.394531 220.710938 689.300781 220.246094 C 691.210938 219.777344 693.132812 219.390625 695.074219 219.082031 C 697.015625 218.773438 698.960938 218.542969 700.921875 218.390625 C 702.878906 218.242188 704.839844 218.171875 706.804688 218.179688 C 707.515625 218.113281 708.214844 217.984375 708.898438 217.789062 C 709.585938 217.59375 710.246094 217.335938 710.886719 217.015625 C 711.523438 216.699219 712.128906 216.324219 712.695312 215.894531 C 713.265625 215.464844 713.789062 214.984375 714.269531 214.457031 C 714.75 213.929688 715.179688 213.363281 715.554688 212.757812 C 715.929688 212.152344 716.246094 211.515625 716.503906 210.851562 C 716.761719 210.183594 716.953125 209.503906 717.085938 208.800781 C 717.214844 208.101562 717.28125 207.394531 717.28125 206.679688 C 717.28125 205.96875 717.214844 205.261719 717.085938 204.558594 C 716.953125 203.859375 716.761719 203.175781 716.503906 202.511719 C 716.246094 201.847656 715.929688 201.210938 715.554688 200.605469 C 715.179688 199.996094 714.75 199.429688 714.269531 198.902344 C 713.789062 198.375 713.265625 197.898438 712.695312 197.46875 C 712.128906 197.039062 711.523438 196.664062 710.886719 196.34375 C 710.246094 196.027344 709.585938 195.769531 708.898438 195.574219 C 708.214844 195.378906 707.515625 195.246094 706.804688 195.179688 C 704.214844 195.171875 701.625 195.265625 699.042969 195.46875 C 696.457031 195.671875 693.886719 195.976562 691.328125 196.390625 C 688.769531 196.800781 686.230469 197.316406 683.714844 197.9375 C 681.195312 198.554688 678.710938 199.277344 676.25 200.097656 C 673.792969 200.921875 671.375 201.839844 668.992188 202.859375 C 666.609375 203.878906 664.269531 204.996094 661.980469 206.203125 C 659.6875 207.414062 657.449219 208.714844 655.261719 210.109375 C 653.078125 211.503906 650.953125 212.980469 648.886719 214.546875 C 646.824219 216.113281 644.828125 217.761719 642.894531 219.492188 C 640.964844 221.21875 639.109375 223.027344 637.328125 224.90625 C 635.542969 226.785156 633.839844 228.738281 632.21875 230.757812 C 630.59375 232.777344 629.054688 234.859375 627.601562 237.003906 C 626.148438 239.148438 624.785156 241.351562 623.511719 243.605469 C 622.238281 245.863281 621.058594 248.167969 619.972656 250.519531 C 618.890625 252.871094 617.902344 255.265625 617.011719 257.699219 C 616.121094 260.132812 615.332031 262.597656 614.644531 265.09375 C 614.519531 265.800781 614.464844 266.507812 614.472656 267.222656 C 614.484375 267.9375 614.558594 268.644531 614.699219 269.34375 C 614.839844 270.046875 615.046875 270.726562 615.3125 271.390625 C 615.578125 272.054688 615.90625 272.683594 616.289062 273.289062 C 616.675781 273.890625 617.113281 274.453125 617.601562 274.972656 C 618.089844 275.492188 618.625 275.964844 619.199219 276.386719 C 619.777344 276.808594 620.386719 277.175781 621.03125 277.484375 C 621.675781 277.792969 622.34375 278.039062 623.035156 278.226562 C 623.726562 278.410156 624.425781 278.53125 625.140625 278.585938 C 625.851562 278.640625 626.5625 278.628906 627.273438 278.554688 C 627.984375 278.476562 628.683594 278.335938 629.367188 278.128906 C 630.050781 277.921875 630.710938 277.65625 631.34375 277.324219 C 631.980469 276.996094 632.578125 276.613281 633.144531 276.171875 C 633.707031 275.734375 634.222656 275.246094 634.695312 274.710938 C 635.167969 274.171875 635.589844 273.597656 635.957031 272.984375 C 636.320312 272.371094 636.628906 271.730469 636.875 271.058594 Z M 636.859375 271.042969 " fill-opacity="1" fill-rule="evenodd"/><path fill="#000000" d="M 663.828125 469.660156 L 657.53125 469.660156 L 657.53125 409.910156 C 657.523438 409.300781 657.464844 408.699219 657.363281 408.101562 C 657.257812 407.503906 657.109375 406.917969 656.910156 406.34375 C 656.714844 405.765625 656.476562 405.210938 656.191406 404.675781 C 655.90625 404.136719 655.582031 403.628906 655.21875 403.140625 C 654.851562 402.65625 654.453125 402.203125 654.015625 401.78125 C 653.578125 401.359375 653.113281 400.972656 652.617188 400.625 C 652.117188 400.273438 651.597656 399.96875 651.050781 399.699219 C 650.503906 399.433594 649.941406 399.210938 649.363281 399.035156 C 648.78125 398.855469 648.191406 398.726562 647.589844 398.640625 C 646.988281 398.554688 646.382812 398.519531 645.773438 398.527344 C 645.167969 398.539062 644.566406 398.597656 643.964844 398.703125 C 643.367188 398.808594 642.78125 398.960938 642.207031 399.160156 C 641.632812 399.355469 641.078125 399.597656 640.542969 399.882812 C 640.007812 400.167969 639.496094 400.496094 639.011719 400.859375 C 638.527344 401.226562 638.074219 401.628906 637.652344 402.066406 C 637.230469 402.503906 636.847656 402.972656 636.5 403.46875 L 588.917969 474.757812 C 588.347656 475.625 587.902344 476.550781 587.582031 477.539062 C 587.261719 478.527344 587.078125 479.542969 587.03125 480.578125 C 586.984375 481.617188 587.078125 482.640625 587.308594 483.652344 C 587.539062 484.667969 587.898438 485.628906 588.386719 486.546875 C 588.878906 487.460938 589.480469 488.296875 590.195312 489.046875 C 590.910156 489.800781 591.714844 490.445312 592.601562 490.984375 C 593.492188 491.519531 594.4375 491.929688 595.4375 492.210938 C 596.433594 492.496094 597.453125 492.640625 598.492188 492.648438 L 634.503906 492.648438 L 634.503906 504.878906 C 634.574219 505.585938 634.703125 506.285156 634.898438 506.96875 C 635.09375 507.65625 635.351562 508.316406 635.671875 508.957031 C 635.988281 509.59375 636.363281 510.195312 636.792969 510.765625 C 637.226562 511.335938 637.703125 511.859375 638.230469 512.339844 C 638.757812 512.820312 639.324219 513.246094 639.933594 513.621094 C 640.539062 513.996094 641.175781 514.3125 641.839844 514.570312 C 642.503906 514.828125 643.1875 515.023438 643.890625 515.152344 C 644.589844 515.285156 645.296875 515.347656 646.011719 515.347656 C 646.726562 515.347656 647.433594 515.285156 648.132812 515.152344 C 648.835938 515.023438 649.519531 514.828125 650.183594 514.570312 C 650.847656 514.3125 651.484375 513.996094 652.089844 513.621094 C 652.699219 513.246094 653.265625 512.820312 653.792969 512.339844 C 654.320312 511.859375 654.796875 511.335938 655.230469 510.765625 C 655.660156 510.199219 656.035156 509.59375 656.351562 508.957031 C 656.671875 508.316406 656.925781 507.65625 657.125 506.96875 C 657.320312 506.285156 657.449219 505.585938 657.515625 504.878906 L 657.515625 492.648438 L 663.828125 492.648438 C 664.539062 492.582031 665.238281 492.449219 665.925781 492.253906 C 666.609375 492.058594 667.273438 491.800781 667.910156 491.480469 C 668.546875 491.164062 669.152344 490.789062 669.722656 490.359375 C 670.289062 489.929688 670.816406 489.449219 671.296875 488.921875 C 671.773438 488.394531 672.203125 487.828125 672.578125 487.222656 C 672.953125 486.617188 673.269531 485.980469 673.527344 485.316406 C 673.785156 484.652344 673.980469 483.96875 674.109375 483.265625 C 674.242188 482.566406 674.304688 481.859375 674.308594 481.144531 C 674.304688 480.433594 674.242188 479.726562 674.109375 479.023438 C 673.980469 478.324219 673.785156 477.640625 673.527344 476.976562 C 673.269531 476.3125 672.953125 475.675781 672.578125 475.070312 C 672.203125 474.460938 671.773438 473.894531 671.296875 473.367188 C 670.816406 472.839844 670.289062 472.363281 669.722656 471.933594 C 669.152344 471.503906 668.546875 471.128906 667.910156 470.808594 C 667.273438 470.492188 666.609375 470.234375 665.925781 470.039062 C 665.238281 469.84375 664.539062 469.710938 663.828125 469.644531 Z M 634.519531 469.660156 L 619.972656 469.660156 L 634.492188 447.882812 Z M 634.519531 469.660156 " fill-opacity="1" fill-rule="evenodd"/><path fill="#000000" d="M 836.0625 469.660156 L 829.765625 469.660156 L 829.765625 409.910156 C 829.753906 409.300781 829.699219 408.699219 829.59375 408.101562 C 829.492188 407.503906 829.339844 406.917969 829.144531 406.34375 C 828.949219 405.765625 828.707031 405.210938 828.421875 404.675781 C 828.140625 404.136719 827.816406 403.628906 827.449219 403.140625 C 827.085938 402.65625 826.683594 402.203125 826.25 401.78125 C 825.8125 401.359375 825.34375 400.972656 824.847656 400.625 C 824.351562 400.273438 823.828125 399.96875 823.285156 399.699219 C 822.738281 399.433594 822.175781 399.210938 821.59375 399.035156 C 821.011719 398.855469 820.421875 398.726562 819.820312 398.640625 C 819.21875 398.554688 818.613281 398.519531 818.007812 398.527344 C 817.398438 398.539062 816.796875 398.597656 816.199219 398.703125 C 815.601562 398.808594 815.015625 398.960938 814.441406 399.160156 C 813.867188 399.355469 813.3125 399.597656 812.777344 399.882812 C 812.238281 400.167969 811.730469 400.496094 811.246094 400.859375 C 810.757812 401.226562 810.308594 401.628906 809.886719 402.066406 C 809.464844 402.503906 809.078125 402.972656 808.730469 403.46875 L 761.179688 474.757812 C 760.609375 475.625 760.164062 476.550781 759.84375 477.539062 C 759.523438 478.527344 759.339844 479.542969 759.292969 480.578125 C 759.246094 481.617188 759.339844 482.640625 759.570312 483.652344 C 759.800781 484.667969 760.160156 485.628906 760.648438 486.546875 C 761.140625 487.460938 761.742188 488.296875 762.457031 489.046875 C 763.171875 489.800781 763.976562 490.445312 764.863281 490.984375 C 765.753906 491.519531 766.699219 491.929688 767.699219 492.210938 C 768.695312 492.496094 769.714844 492.640625 770.753906 492.648438 L 806.765625 492.648438 L 806.765625 504.878906 C 806.835938 505.585938 806.964844 506.285156 807.160156 506.96875 C 807.355469 507.65625 807.613281 508.316406 807.933594 508.957031 C 808.25 509.59375 808.625 510.199219 809.054688 510.765625 C 809.488281 511.335938 809.964844 511.859375 810.492188 512.339844 C 811.019531 512.820312 811.585938 513.246094 812.195312 513.621094 C 812.800781 513.996094 813.4375 514.3125 814.101562 514.570312 C 814.765625 514.828125 815.449219 515.023438 816.152344 515.152344 C 816.851562 515.285156 817.558594 515.347656 818.273438 515.347656 C 818.988281 515.347656 819.695312 515.285156 820.394531 515.152344 C 821.097656 515.023438 821.78125 514.828125 822.445312 514.570312 C 823.109375 514.3125 823.746094 513.996094 824.351562 513.621094 C 824.960938 513.246094 825.527344 512.820312 826.054688 512.339844 C 826.582031 511.859375 827.058594 511.335938 827.492188 510.765625 C 827.921875 510.199219 828.296875 509.59375 828.613281 508.957031 C 828.933594 508.316406 829.1875 507.65625 829.386719 506.96875 C 829.582031 506.285156 829.710938 505.585938 829.777344 504.878906 L 829.777344 492.648438 L 836.078125 492.648438 C 836.878906 492.722656 837.679688 492.714844 838.476562 492.621094 C 839.277344 492.53125 840.058594 492.355469 840.820312 492.101562 C 841.582031 491.847656 842.3125 491.515625 843.003906 491.109375 C 843.699219 490.703125 844.34375 490.226562 844.9375 489.6875 C 845.53125 489.144531 846.066406 488.550781 846.535156 487.898438 C 847.003906 487.246094 847.402344 486.550781 847.726562 485.816406 C 848.050781 485.078125 848.296875 484.320312 848.464844 483.53125 C 848.628906 482.746094 848.714844 481.949219 848.714844 481.144531 C 848.714844 480.34375 848.628906 479.546875 848.464844 478.761719 C 848.296875 477.972656 848.050781 477.210938 847.726562 476.476562 C 847.402344 475.742188 847.003906 475.046875 846.535156 474.394531 C 846.066406 473.742188 845.53125 473.144531 844.9375 472.605469 C 844.34375 472.0625 843.699219 471.589844 843.003906 471.183594 C 842.3125 470.777344 841.582031 470.445312 840.820312 470.191406 C 840.058594 469.933594 839.277344 469.761719 838.476562 469.671875 C 837.679688 469.578125 836.878906 469.570312 836.078125 469.644531 Z M 806.753906 469.660156 L 792.234375 469.660156 L 806.753906 447.882812 Z M 806.753906 469.660156 " fill-opacity="1" fill-rule="evenodd"/><path fill="#000000" d="M 729.152344 398.414062 L 705.402344 398.414062 C 704.636719 398.414062 703.875 398.453125 703.113281 398.527344 C 702.351562 398.601562 701.59375 398.714844 700.84375 398.863281 C 700.089844 399.011719 699.347656 399.199219 698.617188 399.421875 C 697.882812 399.644531 697.164062 399.898438 696.457031 400.191406 C 695.746094 400.484375 695.054688 400.8125 694.378906 401.171875 C 693.703125 401.535156 693.046875 401.925781 692.410156 402.351562 C 691.773438 402.777344 691.160156 403.230469 690.566406 403.714844 C 689.976562 404.203125 689.410156 404.714844 688.867188 405.257812 C 688.324219 405.796875 687.8125 406.363281 687.324219 406.953125 C 686.839844 407.546875 686.382812 408.160156 685.957031 408.796875 C 685.53125 409.433594 685.136719 410.085938 684.773438 410.761719 C 684.414062 411.4375 684.085938 412.128906 683.792969 412.835938 C 683.5 413.542969 683.238281 414.261719 683.015625 414.996094 C 682.792969 415.726562 682.605469 416.46875 682.457031 417.21875 C 682.308594 417.96875 682.195312 418.726562 682.117188 419.488281 C 682.042969 420.25 682.003906 421.011719 682.003906 421.777344 L 682.003906 493.023438 C 682.003906 493.789062 682.042969 494.550781 682.117188 495.3125 C 682.195312 496.074219 682.308594 496.832031 682.457031 497.582031 C 682.605469 498.332031 682.792969 499.074219 683.015625 499.804688 C 683.238281 500.539062 683.5 501.257812 683.792969 501.964844 C 684.085938 502.671875 684.414062 503.363281 684.773438 504.039062 C 685.136719 504.710938 685.53125 505.367188 685.957031 506.003906 C 686.382812 506.640625 686.839844 507.253906 687.324219 507.847656 C 687.8125 508.4375 688.324219 509.003906 688.867188 509.542969 C 689.410156 510.085938 689.976562 510.597656 690.566406 511.082031 C 691.160156 511.570312 691.773438 512.023438 692.410156 512.449219 C 693.046875 512.875 693.703125 513.265625 694.378906 513.628906 C 695.054688 513.988281 695.746094 514.316406 696.457031 514.609375 C 697.164062 514.898438 697.882812 515.15625 698.617188 515.378906 C 699.347656 515.601562 700.089844 515.789062 700.84375 515.9375 C 701.59375 516.085938 702.351562 516.199219 703.113281 516.273438 C 703.875 516.347656 704.636719 516.386719 705.402344 516.386719 L 729.152344 516.386719 C 729.917969 516.386719 730.683594 516.347656 731.445312 516.273438 C 732.207031 516.199219 732.964844 516.085938 733.714844 515.9375 C 734.464844 515.789062 735.207031 515.601562 735.941406 515.378906 C 736.671875 515.15625 737.394531 514.898438 738.101562 514.609375 C 738.808594 514.316406 739.5 513.988281 740.175781 513.628906 C 740.851562 513.265625 741.507812 512.875 742.144531 512.449219 C 742.78125 512.023438 743.394531 511.570312 743.988281 511.082031 C 744.582031 510.597656 745.148438 510.085938 745.691406 509.542969 C 746.230469 509.003906 746.746094 508.4375 747.230469 507.847656 C 747.71875 507.253906 748.175781 506.640625 748.601562 506.003906 C 749.027344 505.367188 749.417969 504.710938 749.78125 504.039062 C 750.144531 503.363281 750.46875 502.671875 750.765625 501.964844 C 751.058594 501.257812 751.316406 500.539062 751.539062 499.804688 C 751.761719 499.074219 751.949219 498.332031 752.097656 497.582031 C 752.25 496.832031 752.363281 496.074219 752.4375 495.3125 C 752.515625 494.550781 752.554688 493.789062 752.554688 493.023438 L 752.554688 421.777344 C 752.554688 421.011719 752.515625 420.25 752.4375 419.488281 C 752.363281 418.726562 752.25 417.96875 752.097656 417.21875 C 751.949219 416.46875 751.761719 415.726562 751.539062 414.996094 C 751.316406 414.261719 751.058594 413.542969 750.765625 412.835938 C 750.46875 412.128906 750.144531 411.4375 749.78125 410.761719 C 749.417969 410.085938 749.027344 409.433594 748.601562 408.796875 C 748.175781 408.160156 747.71875 407.546875 747.230469 406.953125 C 746.746094 406.363281 746.230469 405.796875 745.691406 405.257812 C 745.148438 404.714844 744.582031 404.203125 743.988281 403.714844 C 743.394531 403.230469 742.78125 402.777344 742.144531 402.351562 C 741.507812 401.925781 740.851562 401.535156 740.175781 401.171875 C 739.5 400.8125 738.808594 400.484375 738.101562 400.191406 C 737.394531 399.898438 736.671875 399.644531 735.941406 399.421875 C 735.207031 399.199219 734.464844 399.011719 733.714844 398.863281 C 732.964844 398.714844 732.207031 398.601562 731.445312 398.527344 C 730.683594 398.453125 729.917969 398.414062 729.152344 398.414062 Z M 729.542969 493.023438 C 729.535156 493.125 729.492188 493.210938 729.417969 493.28125 C 729.34375 493.347656 729.253906 493.382812 729.152344 493.382812 L 705.402344 493.382812 C 705.300781 493.382812 705.214844 493.347656 705.136719 493.28125 C 705.0625 493.210938 705.023438 493.125 705.015625 493.023438 L 705.015625 421.777344 C 705.023438 421.675781 705.0625 421.589844 705.136719 421.519531 C 705.214844 421.453125 705.300781 421.417969 705.402344 421.417969 L 729.152344 421.417969 C 729.253906 421.417969 729.34375 421.453125 729.417969 421.519531 C 729.492188 421.589844 729.535156 421.675781 729.542969 421.777344 Z M 729.542969 493.023438 " fill-opacity="1" fill-rule="evenodd"/><g fill="#000000" fill-opacity="1"><g transform="translate(215.221256, 639.581741)"><g><path d="M 4.09375 -5.40625 C 5.5625 -5.457031 6.675781 -5.632812 7.4375 -5.9375 C 8.207031 -6.238281 8.8125 -6.878906 9.25 -7.859375 C 9.6875 -8.835938 9.90625 -10.390625 9.90625 -12.515625 L 9.90625 -43.875 C 9.90625 -46.925781 10.015625 -49.378906 10.234375 -51.234375 L 4.09375 -50.984375 L 4.09375 -57.296875 L 27.578125 -57.296875 L 27.578125 -51.890625 C 26.109375 -51.835938 24.988281 -51.660156 24.21875 -51.359375 C 23.457031 -51.054688 22.859375 -50.410156 22.421875 -49.421875 C 21.984375 -48.441406 21.765625 -46.890625 21.765625 -44.765625 L 21.765625 -13.421875 C 21.765625 -10.367188 21.65625 -7.914062 21.4375 -6.0625 C 23.1875 -6.21875 25.234375 -6.296875 27.578125 -6.296875 L 27.578125 0 L 4.09375 0 Z M 4.09375 -5.40625 "/></g></g></g><g fill="#000000" fill-opacity="1"><g transform="translate(246.892366, 639.581741)"><g><path d="M 3.359375 -5.3125 C 5.429688 -5.3125 6.753906 -5.882812 7.328125 -7.03125 C 7.898438 -8.175781 8.1875 -10.035156 8.1875 -12.609375 L 8.1875 -26.359375 C 8.1875 -28.804688 8.296875 -31.125 8.515625 -33.3125 L 2.78125 -33.0625 L 2.78125 -39.28125 C 6.21875 -39.28125 9 -39.523438 11.125 -40.015625 C 13.257812 -40.515625 14.679688 -41.085938 15.390625 -41.734375 L 19.390625 -41.734375 C 19.390625 -41.628906 19.5 -40.265625 19.71875 -37.640625 L 19.890625 -37.640625 C 21.578125 -39.003906 23.484375 -40.109375 25.609375 -40.953125 C 27.742188 -41.804688 29.820312 -42.234375 31.84375 -42.234375 C 34.289062 -42.234375 36.347656 -41.78125 38.015625 -40.875 C 39.679688 -39.976562 41.003906 -38.628906 41.984375 -36.828125 C 43.953125 -38.460938 46.132812 -39.769531 48.53125 -40.75 C 50.9375 -41.738281 53.203125 -42.234375 55.328125 -42.234375 C 59.859375 -42.234375 63.226562 -40.921875 65.4375 -38.296875 C 67.644531 -35.679688 68.75 -31.316406 68.75 -25.203125 L 68.75 -13.171875 C 68.75 -10.554688 68.640625 -8.15625 68.421875 -5.96875 C 70.171875 -6.132812 71.941406 -6.21875 73.734375 -6.21875 L 73.734375 0 L 53.03125 0 L 53.03125 -5.3125 C 54.78125 -5.3125 55.898438 -5.898438 56.390625 -7.078125 C 56.878906 -8.253906 57.125 -10.097656 57.125 -12.609375 L 57.125 -25.125 C 57.070312 -28.5625 56.5 -31.003906 55.40625 -32.453125 C 54.3125 -33.898438 52.726562 -34.625 50.65625 -34.625 C 48.257812 -34.625 45.914062 -33.722656 43.625 -31.921875 C 44.113281 -29.734375 44.359375 -27.140625 44.359375 -24.140625 L 44.359375 -13.171875 C 44.359375 -10.554688 44.25 -8.15625 44.03125 -5.96875 C 45.78125 -6.132812 47.554688 -6.21875 49.359375 -6.21875 L 49.359375 0 L 28.234375 0 L 28.234375 -5.3125 C 30.140625 -5.3125 31.363281 -5.882812 31.90625 -7.03125 C 32.457031 -8.175781 32.734375 -10.035156 32.734375 -12.609375 L 32.65625 -25.375 C 32.65625 -28.757812 32.160156 -31.144531 31.171875 -32.53125 C 30.191406 -33.925781 28.722656 -34.648438 26.765625 -34.703125 C 24.359375 -34.703125 22.039062 -33.691406 19.8125 -31.671875 L 19.8125 -13.171875 C 19.8125 -10.554688 19.703125 -8.15625 19.484375 -5.96875 C 21.222656 -6.132812 22.859375 -6.21875 24.390625 -6.21875 L 24.390625 0 L 3.359375 0 Z M 3.359375 -5.3125 "/></g></g></g><g fill="#000000" fill-opacity="1"><g transform="translate(322.182867, 639.581741)"><g><path d="M 13.59375 1.3125 C 10.15625 1.3125 7.4375 0.289062 5.4375 -1.75 C 3.445312 -3.800781 2.453125 -6.410156 2.453125 -9.578125 C 2.453125 -14.378906 4.6875 -18.019531 9.15625 -20.5 C 13.632812 -22.976562 19.015625 -24.359375 25.296875 -24.640625 L 25.296875 -28.890625 C 25.296875 -33.859375 23.4375 -36.34375 19.71875 -36.34375 C 17.320312 -36.34375 15.359375 -35.578125 13.828125 -34.046875 C 14.484375 -33.285156 14.8125 -32.25 14.8125 -30.9375 C 14.8125 -29.625 14.359375 -28.445312 13.453125 -27.40625 C 12.554688 -26.375 11.238281 -25.859375 9.5 -25.859375 C 7.851562 -25.859375 6.566406 -26.390625 5.640625 -27.453125 C 4.710938 -28.515625 4.25 -29.835938 4.25 -31.421875 C 4.25 -33.554688 5.015625 -35.441406 6.546875 -37.078125 C 8.078125 -38.710938 10.164062 -39.976562 12.8125 -40.875 C 15.457031 -41.78125 18.363281 -42.234375 21.53125 -42.234375 C 31.625 -42.234375 36.671875 -37.019531 36.671875 -26.59375 L 36.578125 -13.171875 C 36.578125 -10.554688 36.46875 -8.15625 36.25 -5.96875 C 38.050781 -6.132812 39.828125 -6.21875 41.578125 -6.21875 L 41.578125 0 L 26.109375 0 C 25.992188 -0.707031 25.882812 -1.960938 25.78125 -3.765625 L 25.703125 -3.765625 C 22.367188 -0.378906 18.332031 1.3125 13.59375 1.3125 Z M 18.75 -6.71875 C 21.195312 -6.71875 23.347656 -7.695312 25.203125 -9.65625 L 25.203125 -18.828125 C 21.984375 -18.492188 19.320312 -17.671875 17.21875 -16.359375 C 15.125 -15.054688 14.078125 -13.285156 14.078125 -11.046875 C 14.078125 -9.578125 14.523438 -8.488281 15.421875 -7.78125 C 16.328125 -7.070312 17.4375 -6.71875 18.75 -6.71875 Z M 18.75 -6.71875 "/></g></g></g><g fill="#000000" fill-opacity="1"><g transform="translate(365.065711, 639.581741)"><g><path d="M 20.953125 22.171875 C 14.347656 22.171875 9.585938 21.160156 6.671875 19.140625 C 3.753906 17.128906 2.296875 14.566406 2.296875 11.453125 C 2.296875 9.546875 2.90625 7.757812 4.125 6.09375 C 5.351562 4.425781 7.332031 3.078125 10.0625 2.046875 C 7.9375 1.441406 6.394531 0.515625 5.4375 -0.734375 C 4.488281 -1.992188 4.015625 -3.46875 4.015625 -5.15625 C 4.015625 -6.789062 4.65625 -8.453125 5.9375 -10.140625 C 7.21875 -11.835938 9.222656 -13.09375 11.953125 -13.90625 L 11.953125 -14 C 9.492188 -14.976562 7.539062 -16.515625 6.09375 -18.609375 C 4.644531 -20.710938 3.921875 -23.210938 3.921875 -26.109375 C 3.921875 -29.160156 4.78125 -31.914062 6.5 -34.375 C 8.21875 -36.832031 10.484375 -38.753906 13.296875 -40.140625 C 16.109375 -41.535156 19.066406 -42.234375 22.171875 -42.234375 C 23.816406 -42.234375 25.535156 -42.023438 27.328125 -41.609375 C 29.128906 -41.203125 30.660156 -40.5625 31.921875 -39.6875 C 32.953125 -42.53125 34.34375 -44.890625 36.09375 -46.765625 C 37.84375 -48.648438 39.914062 -49.59375 42.3125 -49.59375 C 44.113281 -49.59375 45.503906 -49.128906 46.484375 -48.203125 C 47.460938 -47.273438 47.953125 -45.992188 47.953125 -44.359375 C 47.953125 -43.109375 47.554688 -41.960938 46.765625 -40.921875 C 45.984375 -39.878906 44.742188 -39.359375 43.046875 -39.359375 C 42.171875 -39.359375 41.3125 -39.671875 40.46875 -40.296875 C 39.625 -40.929688 39.117188 -41.6875 38.953125 -42.5625 C 38.242188 -42.34375 37.535156 -41.644531 36.828125 -40.46875 C 36.117188 -39.300781 35.710938 -38.222656 35.609375 -37.234375 C 37.128906 -35.867188 38.3125 -34.285156 39.15625 -32.484375 C 40.007812 -30.691406 40.4375 -28.757812 40.4375 -26.6875 C 40.4375 -23.625 39.5625 -20.851562 37.8125 -18.375 C 36.0625 -15.894531 33.769531 -13.957031 30.9375 -12.5625 C 28.101562 -11.164062 25.078125 -10.46875 21.859375 -10.46875 L 19.5625 -10.5625 C 18.363281 -10.664062 17.488281 -10.71875 16.9375 -10.71875 C 15.738281 -10.71875 14.726562 -10.5 13.90625 -10.0625 C 13.09375 -9.625 12.6875 -9.023438 12.6875 -8.265625 C 12.6875 -7.285156 13.4375 -6.585938 14.9375 -6.171875 C 16.4375 -5.765625 19.175781 -5.453125 23.15625 -5.234375 C 30.03125 -4.859375 35.238281 -3.710938 38.78125 -1.796875 C 42.332031 0.109375 44.109375 3.300781 44.109375 7.78125 C 44.109375 10.71875 42.976562 13.28125 40.71875 15.46875 C 38.457031 17.65625 35.535156 19.316406 31.953125 20.453125 C 28.378906 21.597656 24.710938 22.171875 20.953125 22.171875 Z M 22.171875 -15.953125 C 24.253906 -15.953125 25.90625 -16.878906 27.125 -18.734375 C 28.351562 -20.597656 28.96875 -22.753906 28.96875 -25.203125 C 28.96875 -28.316406 28.367188 -31.019531 27.171875 -33.3125 C 25.972656 -35.601562 24.28125 -36.75 22.09375 -36.75 C 20.019531 -36.75 18.351562 -35.789062 17.09375 -33.875 C 15.84375 -31.96875 15.21875 -29.707031 15.21875 -27.09375 C 15.21875 -24.03125 15.84375 -21.40625 17.09375 -19.21875 C 18.351562 -17.039062 20.046875 -15.953125 22.171875 -15.953125 Z M 23.328125 16.53125 C 25.785156 16.53125 27.898438 16.203125 29.671875 15.546875 C 31.441406 14.890625 32.789062 14.054688 33.71875 13.046875 C 34.644531 12.046875 35.109375 11.023438 35.109375 9.984375 C 35.109375 8.296875 34.140625 7.015625 32.203125 6.140625 C 30.265625 5.265625 27.304688 4.742188 23.328125 4.578125 C 22.890625 4.523438 22.179688 4.5 21.203125 4.5 C 20.648438 4.445312 19.691406 4.378906 18.328125 4.296875 C 16.960938 4.210938 15.847656 4.085938 14.984375 3.921875 C 14.160156 4.578125 13.515625 5.421875 13.046875 6.453125 C 12.585938 7.492188 12.359375 8.535156 12.359375 9.578125 C 12.359375 11.703125 13.351562 13.390625 15.34375 14.640625 C 17.332031 15.898438 19.992188 16.53125 23.328125 16.53125 Z M 23.328125 16.53125 "/></g></g></g><g fill="#000000" fill-opacity="1"><g transform="translate(410.649194, 639.581741)"><g><path d="M 22.75 1.3125 C 18.769531 1.3125 15.25 0.425781 12.1875 -1.34375 C 9.132812 -3.125 6.757812 -5.648438 5.0625 -8.921875 C 3.375 -12.191406 2.53125 -16.007812 2.53125 -20.375 C 2.53125 -24.195312 3.390625 -27.785156 5.109375 -31.140625 C 6.828125 -34.492188 9.242188 -37.179688 12.359375 -39.203125 C 15.472656 -41.222656 19.019531 -42.234375 23 -42.234375 C 28.289062 -42.234375 32.695312 -40.675781 36.21875 -37.5625 C 39.738281 -34.457031 41.46875 -29.273438 41.40625 -22.015625 L 14.5625 -21.53125 C 14.5625 -16.726562 15.472656 -12.929688 17.296875 -10.140625 C 19.128906 -7.359375 22.066406 -5.96875 26.109375 -5.96875 C 28.015625 -5.96875 30.054688 -6.457031 32.234375 -7.4375 C 34.421875 -8.425781 36.390625 -9.984375 38.140625 -12.109375 L 41.828125 -8.671875 C 37.179688 -2.015625 30.820312 1.3125 22.75 1.3125 Z M 30.125 -27.25 C 29.957031 -33.414062 27.71875 -36.5 23.40625 -36.5 C 21.0625 -36.5 19.191406 -35.664062 17.796875 -34 C 16.410156 -32.34375 15.5 -30.09375 15.0625 -27.25 Z M 30.125 -27.25 "/></g></g></g><g fill="#000000" fill-opacity="1"><g transform="translate(454.677775, 639.581741)"><g><path d="M 3.359375 -5.3125 C 5.429688 -5.3125 6.753906 -5.882812 7.328125 -7.03125 C 7.898438 -8.175781 8.1875 -10.035156 8.1875 -12.609375 L 8.1875 -26.359375 C 8.1875 -28.804688 8.296875 -31.125 8.515625 -33.3125 L 2.78125 -33.0625 L 2.78125 -39.28125 C 6.21875 -39.28125 9 -39.523438 11.125 -40.015625 C 13.257812 -40.515625 14.679688 -41.085938 15.390625 -41.734375 L 19.390625 -41.734375 C 19.390625 -41.628906 19.5 -40.265625 19.71875 -37.640625 L 19.890625 -37.640625 C 21.578125 -39.003906 23.484375 -40.109375 25.609375 -40.953125 C 27.742188 -41.804688 29.820312 -42.234375 31.84375 -42.234375 C 34.289062 -42.234375 36.347656 -41.78125 38.015625 -40.875 C 39.679688 -39.976562 41.003906 -38.628906 41.984375 -36.828125 C 43.953125 -38.460938 46.132812 -39.769531 48.53125 -40.75 C 50.9375 -41.738281 53.203125 -42.234375 55.328125 -42.234375 C 59.859375 -42.234375 63.226562 -40.921875 65.4375 -38.296875 C 67.644531 -35.679688 68.75 -31.316406 68.75 -25.203125 L 68.75 -13.171875 C 68.75 -10.554688 68.640625 -8.15625 68.421875 -5.96875 C 70.171875 -6.132812 71.941406 -6.21875 73.734375 -6.21875 L 73.734375 0 L 53.03125 0 L 53.03125 -5.3125 C 54.78125 -5.3125 55.898438 -5.898438 56.390625 -7.078125 C 56.878906 -8.253906 57.125 -10.097656 57.125 -12.609375 L 57.125 -25.125 C 57.070312 -28.5625 56.5 -31.003906 55.40625 -32.453125 C 54.3125 -33.898438 52.726562 -34.625 50.65625 -34.625 C 48.257812 -34.625 45.914062 -33.722656 43.625 -31.921875 C 44.113281 -29.734375 44.359375 -27.140625 44.359375 -24.140625 L 44.359375 -13.171875 C 44.359375 -10.554688 44.25 -8.15625 44.03125 -5.96875 C 45.78125 -6.132812 47.554688 -6.21875 49.359375 -6.21875 L 49.359375 0 L 28.234375 0 L 28.234375 -5.3125 C 30.140625 -5.3125 31.363281 -5.882812 31.90625 -7.03125 C 32.457031 -8.175781 32.734375 -10.035156 32.734375 -12.609375 L 32.65625 -25.375 C 32.65625 -28.757812 32.160156 -31.144531 31.171875 -32.53125 C 30.191406 -33.925781 28.722656 -34.648438 26.765625 -34.703125 C 24.359375 -34.703125 22.039062 -33.691406 19.8125 -31.671875 L 19.8125 -13.171875 C 19.8125 -10.554688 19.703125 -8.15625 19.484375 -5.96875 C 21.222656 -6.132812 22.859375 -6.21875 24.390625 -6.21875 L 24.390625 0 L 3.359375 0 Z M 3.359375 -5.3125 "/></g></g></g><g fill="#000000" fill-opacity="1"><g transform="translate(529.96829, 639.581741)"><g/></g></g><g fill="#000000" fill-opacity="1"><g transform="translate(551.491572, 639.581741)"><g><path d="M 3.359375 -5.3125 C 5.429688 -5.3125 6.753906 -5.882812 7.328125 -7.03125 C 7.898438 -8.175781 8.1875 -10.035156 8.1875 -12.609375 L 8.1875 -26.359375 C 8.1875 -28.804688 8.296875 -31.125 8.515625 -33.3125 L 2.78125 -33.0625 L 2.78125 -39.28125 C 6.21875 -39.28125 9 -39.523438 11.125 -40.015625 C 13.257812 -40.515625 14.679688 -41.085938 15.390625 -41.734375 L 19.390625 -41.734375 C 19.390625 -41.628906 19.5 -40.265625 19.71875 -37.640625 L 19.890625 -37.640625 C 21.472656 -38.898438 23.421875 -39.976562 25.734375 -40.875 C 28.054688 -41.78125 30.035156 -42.234375 31.671875 -42.234375 C 36.640625 -42.234375 40.1875 -40.8125 42.3125 -37.96875 C 44.4375 -35.132812 45.5 -30.523438 45.5 -24.140625 L 45.5 -13.171875 C 45.5 -10.554688 45.390625 -8.15625 45.171875 -5.96875 C 46.972656 -6.132812 48.75 -6.21875 50.5 -6.21875 L 50.5 0 L 29.046875 0 L 29.046875 -5.3125 C 31.128906 -5.3125 32.46875 -5.882812 33.0625 -7.03125 C 33.664062 -8.175781 33.96875 -10.035156 33.96875 -12.609375 L 33.890625 -24.21875 C 33.890625 -27.820312 33.382812 -30.46875 32.375 -32.15625 C 31.363281 -33.851562 29.65625 -34.703125 27.25 -34.703125 C 25.945312 -34.703125 24.613281 -34.414062 23.25 -33.84375 C 21.882812 -33.269531 20.738281 -32.546875 19.8125 -31.671875 L 19.8125 -13.171875 C 19.8125 -10.554688 19.703125 -8.15625 19.484375 -5.96875 C 21.222656 -6.132812 22.992188 -6.21875 24.796875 -6.21875 L 24.796875 0 L 3.359375 0 Z M 3.359375 -5.3125 "/></g></g></g><g fill="#000000" fill-opacity="1"><g transform="translate(603.540211, 639.581741)"><g><path d="M 13.59375 1.3125 C 10.15625 1.3125 7.4375 0.289062 5.4375 -1.75 C 3.445312 -3.800781 2.453125 -6.410156 2.453125 -9.578125 C 2.453125 -14.378906 4.6875 -18.019531 9.15625 -20.5 C 13.632812 -22.976562 19.015625 -24.359375 25.296875 -24.640625 L 25.296875 -28.890625 C 25.296875 -33.859375 23.4375 -36.34375 19.71875 -36.34375 C 17.320312 -36.34375 15.359375 -35.578125 13.828125 -34.046875 C 14.484375 -33.285156 14.8125 -32.25 14.8125 -30.9375 C 14.8125 -29.625 14.359375 -28.445312 13.453125 -27.40625 C 12.554688 -26.375 11.238281 -25.859375 9.5 -25.859375 C 7.851562 -25.859375 6.566406 -26.390625 5.640625 -27.453125 C 4.710938 -28.515625 4.25 -29.835938 4.25 -31.421875 C 4.25 -33.554688 5.015625 -35.441406 6.546875 -37.078125 C 8.078125 -38.710938 10.164062 -39.976562 12.8125 -40.875 C 15.457031 -41.78125 18.363281 -42.234375 21.53125 -42.234375 C 31.625 -42.234375 36.671875 -37.019531 36.671875 -26.59375 L 36.578125 -13.171875 C 36.578125 -10.554688 36.46875 -8.15625 36.25 -5.96875 C 38.050781 -6.132812 39.828125 -6.21875 41.578125 -6.21875 L 41.578125 0 L 26.109375 0 C 25.992188 -0.707031 25.882812 -1.960938 25.78125 -3.765625 L 25.703125 -3.765625 C 22.367188 -0.378906 18.332031 1.3125 13.59375 1.3125 Z M 18.75 -6.71875 C 21.195312 -6.71875 23.347656 -7.695312 25.203125 -9.65625 L 25.203125 -18.828125 C 21.984375 -18.492188 19.320312 -17.671875 17.21875 -16.359375 C 15.125 -15.054688 14.078125 -13.285156 14.078125 -11.046875 C 14.078125 -9.578125 14.523438 -8.488281 15.421875 -7.78125 C 16.328125 -7.070312 17.4375 -6.71875 18.75 -6.71875 Z M 5.96875 -52.21875 C 6.84375 -54.675781 8.191406 -56.691406 10.015625 -58.265625 C 11.847656 -59.847656 13.691406 -60.640625 15.546875 -60.640625 C 16.742188 -60.640625 17.75 -60.488281 18.5625 -60.1875 C 19.382812 -59.894531 20.257812 -59.472656 21.1875 -58.921875 C 22.007812 -58.429688 22.734375 -58.078125 23.359375 -57.859375 C 23.984375 -57.640625 24.707031 -57.53125 25.53125 -57.53125 C 26.457031 -57.53125 27.359375 -57.882812 28.234375 -58.59375 C 29.109375 -59.3125 29.898438 -60.320312 30.609375 -61.625 L 35.265625 -59.25 C 34.179688 -56.09375 32.738281 -53.707031 30.9375 -52.09375 C 29.132812 -50.476562 27.332031 -49.671875 25.53125 -49.671875 C 24.488281 -49.671875 23.546875 -49.820312 22.703125 -50.125 C 21.859375 -50.425781 20.890625 -50.878906 19.796875 -51.484375 C 18.867188 -51.972656 18.117188 -52.328125 17.546875 -52.546875 C 16.972656 -52.765625 16.332031 -52.875 15.625 -52.875 C 14.8125 -52.875 13.953125 -52.613281 13.046875 -52.09375 C 12.148438 -51.570312 11.316406 -50.710938 10.546875 -49.515625 Z M 5.96875 -52.21875 "/></g></g></g><g fill="#000000" fill-opacity="1"><g transform="translate(646.423055, 639.581741)"><g><path d="M 23.40625 1.3125 C 19.425781 1.3125 15.851562 0.46875 12.6875 -1.21875 C 9.519531 -2.914062 7.035156 -5.347656 5.234375 -8.515625 C 3.429688 -11.679688 2.53125 -15.363281 2.53125 -19.5625 C 2.53125 -23.976562 3.457031 -27.90625 5.3125 -31.34375 C 7.175781 -34.78125 9.675781 -37.453125 12.8125 -39.359375 C 15.945312 -41.273438 19.394531 -42.234375 23.15625 -42.234375 C 27.082031 -42.234375 30.601562 -41.382812 33.71875 -39.6875 C 36.832031 -38 39.285156 -35.554688 41.078125 -32.359375 C 42.878906 -29.171875 43.78125 -25.453125 43.78125 -21.203125 C 43.78125 -16.671875 42.921875 -12.710938 41.203125 -9.328125 C 39.484375 -5.941406 37.082031 -3.320312 34 -1.46875 C 30.914062 0.382812 27.382812 1.3125 23.40625 1.3125 Z M 23.578125 -4.5 C 26.578125 -4.5 28.675781 -5.890625 29.875 -8.671875 C 31.070312 -11.453125 31.671875 -14.945312 31.671875 -19.15625 C 31.671875 -23.84375 30.988281 -27.90625 29.625 -31.34375 C 28.257812 -34.78125 26.101562 -36.5 23.15625 -36.5 C 20.15625 -36.5 17.972656 -35.078125 16.609375 -32.234375 C 15.242188 -29.398438 14.5625 -25.910156 14.5625 -21.765625 C 14.5625 -17.023438 15.296875 -12.960938 16.765625 -9.578125 C 18.242188 -6.191406 20.515625 -4.5 23.578125 -4.5 Z M 23.578125 -4.5 "/></g></g></g><g fill="#000000" fill-opacity="1"><g transform="translate(692.743086, 639.581741)"><g/></g></g><g fill="#000000" fill-opacity="1"><g transform="translate(714.266367, 639.581741)"><g><path d="M 22.75 1.3125 C 18.769531 1.3125 15.25 0.425781 12.1875 -1.34375 C 9.132812 -3.125 6.757812 -5.648438 5.0625 -8.921875 C 3.375 -12.191406 2.53125 -16.007812 2.53125 -20.375 C 2.53125 -24.195312 3.390625 -27.785156 5.109375 -31.140625 C 6.828125 -34.492188 9.242188 -37.179688 12.359375 -39.203125 C 15.472656 -41.222656 19.019531 -42.234375 23 -42.234375 C 28.289062 -42.234375 32.695312 -40.675781 36.21875 -37.5625 C 39.738281 -34.457031 41.46875 -29.273438 41.40625 -22.015625 L 14.5625 -21.53125 C 14.5625 -16.726562 15.472656 -12.929688 17.296875 -10.140625 C 19.128906 -7.359375 22.066406 -5.96875 26.109375 -5.96875 C 28.015625 -5.96875 30.054688 -6.457031 32.234375 -7.4375 C 34.421875 -8.425781 36.390625 -9.984375 38.140625 -12.109375 L 41.828125 -8.671875 C 37.179688 -2.015625 30.820312 1.3125 22.75 1.3125 Z M 30.125 -27.25 C 29.957031 -33.414062 27.71875 -36.5 23.40625 -36.5 C 21.0625 -36.5 19.191406 -35.664062 17.796875 -34 C 16.410156 -32.34375 15.5 -30.09375 15.0625 -27.25 Z M 30.125 -27.25 "/></g></g></g><g fill="#000000" fill-opacity="1"><g transform="translate(758.294921, 639.581741)"><g><path d="M 3.359375 -5.3125 C 5.429688 -5.3125 6.753906 -5.882812 7.328125 -7.03125 C 7.898438 -8.175781 8.1875 -10.035156 8.1875 -12.609375 L 8.1875 -26.359375 C 8.1875 -28.804688 8.296875 -31.125 8.515625 -33.3125 L 2.78125 -33.0625 L 2.78125 -39.28125 C 6.21875 -39.28125 9 -39.523438 11.125 -40.015625 C 13.257812 -40.515625 14.679688 -41.085938 15.390625 -41.734375 L 19.390625 -41.734375 C 19.390625 -41.628906 19.5 -40.265625 19.71875 -37.640625 L 19.890625 -37.640625 C 21.472656 -38.898438 23.421875 -39.976562 25.734375 -40.875 C 28.054688 -41.78125 30.035156 -42.234375 31.671875 -42.234375 C 36.640625 -42.234375 40.1875 -40.8125 42.3125 -37.96875 C 44.4375 -35.132812 45.5 -30.523438 45.5 -24.140625 L 45.5 -13.171875 C 45.5 -10.554688 45.390625 -8.15625 45.171875 -5.96875 C 46.972656 -6.132812 48.75 -6.21875 50.5 -6.21875 L 50.5 0 L 29.046875 0 L 29.046875 -5.3125 C 31.128906 -5.3125 32.46875 -5.882812 33.0625 -7.03125 C 33.664062 -8.175781 33.96875 -10.035156 33.96875 -12.609375 L 33.890625 -24.21875 C 33.890625 -27.820312 33.382812 -30.46875 32.375 -32.15625 C 31.363281 -33.851562 29.65625 -34.703125 27.25 -34.703125 C 25.945312 -34.703125 24.613281 -34.414062 23.25 -33.84375 C 21.882812 -33.269531 20.738281 -32.546875 19.8125 -31.671875 L 19.8125 -13.171875 C 19.8125 -10.554688 19.703125 -8.15625 19.484375 -5.96875 C 21.222656 -6.132812 22.992188 -6.21875 24.796875 -6.21875 L 24.796875 0 L 3.359375 0 Z M 3.359375 -5.3125 "/></g></g></g><g fill="#000000" fill-opacity="1"><g transform="translate(810.343561, 639.581741)"><g><path d="M 22.671875 1.3125 C 18.960938 1.3125 15.578125 0.476562 12.515625 -1.1875 C 9.460938 -2.851562 7.035156 -5.253906 5.234375 -8.390625 C 3.429688 -11.523438 2.53125 -15.25 2.53125 -19.5625 C 2.53125 -23.65625 3.429688 -27.429688 5.234375 -30.890625 C 7.035156 -34.359375 9.554688 -37.113281 12.796875 -39.15625 C 16.046875 -41.207031 19.71875 -42.234375 23.8125 -42.234375 C 27.144531 -42.234375 29.992188 -41.710938 32.359375 -40.671875 C 34.734375 -39.640625 36.519531 -38.265625 37.71875 -36.546875 C 38.925781 -34.828125 39.53125 -32.984375 39.53125 -31.015625 C 39.53125 -29.328125 39.023438 -27.878906 38.015625 -26.671875 C 37.003906 -25.472656 35.628906 -24.875 33.890625 -24.875 C 32.085938 -24.875 30.734375 -25.421875 29.828125 -26.515625 C 28.929688 -27.609375 28.484375 -28.835938 28.484375 -30.203125 C 28.484375 -31.453125 28.8125 -32.648438 29.46875 -33.796875 C 28.976562 -34.785156 28.1875 -35.484375 27.09375 -35.890625 C 26 -36.296875 24.90625 -36.5 23.8125 -36.5 C 21.03125 -36.5 18.78125 -35.226562 17.0625 -32.6875 C 15.34375 -30.15625 14.484375 -26.570312 14.484375 -21.9375 C 14.484375 -17.300781 15.382812 -13.476562 17.1875 -10.46875 C 18.988281 -7.46875 21.828125 -5.96875 25.703125 -5.96875 C 27.878906 -5.96875 30.03125 -6.539062 32.15625 -7.6875 C 34.289062 -8.832031 36.09375 -10.363281 37.5625 -12.28125 L 41.328125 -8.59375 C 38.597656 -4.832031 35.675781 -2.238281 32.5625 -0.8125 C 29.457031 0.601562 26.160156 1.3125 22.671875 1.3125 Z M 22.671875 1.3125 "/></g></g></g><g fill="#000000" fill-opacity="1"><g transform="translate(852.735355, 639.581741)"><g><path d="M 23.40625 1.3125 C 19.425781 1.3125 15.851562 0.46875 12.6875 -1.21875 C 9.519531 -2.914062 7.035156 -5.347656 5.234375 -8.515625 C 3.429688 -11.679688 2.53125 -15.363281 2.53125 -19.5625 C 2.53125 -23.976562 3.457031 -27.90625 5.3125 -31.34375 C 7.175781 -34.78125 9.675781 -37.453125 12.8125 -39.359375 C 15.945312 -41.273438 19.394531 -42.234375 23.15625 -42.234375 C 27.082031 -42.234375 30.601562 -41.382812 33.71875 -39.6875 C 36.832031 -38 39.285156 -35.554688 41.078125 -32.359375 C 42.878906 -29.171875 43.78125 -25.453125 43.78125 -21.203125 C 43.78125 -16.671875 42.921875 -12.710938 41.203125 -9.328125 C 39.484375 -5.941406 37.082031 -3.320312 34 -1.46875 C 30.914062 0.382812 27.382812 1.3125 23.40625 1.3125 Z M 23.578125 -4.5 C 26.578125 -4.5 28.675781 -5.890625 29.875 -8.671875 C 31.070312 -11.453125 31.671875 -14.945312 31.671875 -19.15625 C 31.671875 -23.84375 30.988281 -27.90625 29.625 -31.34375 C 28.257812 -34.78125 26.101562 -36.5 23.15625 -36.5 C 20.15625 -36.5 17.972656 -35.078125 16.609375 -32.234375 C 15.242188 -29.398438 14.5625 -25.910156 14.5625 -21.765625 C 14.5625 -17.023438 15.296875 -12.960938 16.765625 -9.578125 C 18.242188 -6.191406 20.515625 -4.5 23.578125 -4.5 Z M 23.578125 -4.5 "/></g></g></g><g fill="#000000" fill-opacity="1"><g transform="translate(899.055386, 639.581741)"><g><path d="M 3.359375 -5.3125 C 5.429688 -5.3125 6.753906 -5.882812 7.328125 -7.03125 C 7.898438 -8.175781 8.1875 -10.035156 8.1875 -12.609375 L 8.1875 -26.359375 C 8.1875 -28.804688 8.296875 -31.125 8.515625 -33.3125 L 2.78125 -33.0625 L 2.78125 -39.28125 C 6.21875 -39.28125 9 -39.523438 11.125 -40.015625 C 13.257812 -40.515625 14.679688 -41.085938 15.390625 -41.734375 L 19.390625 -41.734375 C 19.390625 -41.628906 19.5 -40.265625 19.71875 -37.640625 L 19.890625 -37.640625 C 21.472656 -38.898438 23.421875 -39.976562 25.734375 -40.875 C 28.054688 -41.78125 30.035156 -42.234375 31.671875 -42.234375 C 36.640625 -42.234375 40.1875 -40.8125 42.3125 -37.96875 C 44.4375 -35.132812 45.5 -30.523438 45.5 -24.140625 L 45.5 -13.171875 C 45.5 -10.554688 45.390625 -8.15625 45.171875 -5.96875 C 46.972656 -6.132812 48.75 -6.21875 50.5 -6.21875 L 50.5 0 L 29.046875 0 L 29.046875 -5.3125 C 31.128906 -5.3125 32.46875 -5.882812 33.0625 -7.03125 C 33.664062 -8.175781 33.96875 -10.035156 33.96875 -12.609375 L 33.890625 -24.21875 C 33.890625 -27.820312 33.382812 -30.46875 32.375 -32.15625 C 31.363281 -33.851562 29.65625 -34.703125 27.25 -34.703125 C 25.945312 -34.703125 24.613281 -34.414062 23.25 -33.84375 C 21.882812 -33.269531 20.738281 -32.546875 19.8125 -31.671875 L 19.8125 -13.171875 C 19.8125 -10.554688 19.703125 -8.15625 19.484375 -5.96875 C 21.222656 -6.132812 22.992188 -6.21875 24.796875 -6.21875 L 24.796875 0 L 3.359375 0 Z M 3.359375 -5.3125 "/></g></g></g><g fill="#000000" fill-opacity="1"><g transform="translate(951.104025, 639.581741)"><g><path d="M 19.5625 1.3125 C 11.050781 1.3125 6.796875 -3.925781 6.796875 -14.40625 L 6.953125 -34.125 L 1.390625 -34.125 L 1.390625 -40.921875 C 3.140625 -40.921875 4.789062 -41.46875 6.34375 -42.5625 C 7.894531 -43.65625 9.21875 -44.988281 10.3125 -46.5625 C 11.40625 -48.144531 12.171875 -49.675781 12.609375 -51.15625 L 18.65625 -51.15625 L 18.578125 -40.921875 L 28.96875 -40.921875 L 28.96875 -34.625 L 18.578125 -34.375 L 18.5 -14.234375 C 18.5 -8.941406 20.132812 -6.296875 23.40625 -6.296875 C 26.019531 -6.296875 28.503906 -7.9375 30.859375 -11.21875 L 34.78125 -7.53125 C 32.21875 -3.757812 29.65625 -1.34375 27.09375 -0.28125 C 24.53125 0.78125 22.019531 1.3125 19.5625 1.3125 Z M 19.5625 1.3125 "/></g></g></g><g fill="#000000" fill-opacity="1"><g transform="translate(984.902905, 639.581741)"><g><path d="M 3.359375 -5.3125 C 5.429688 -5.3125 6.753906 -5.882812 7.328125 -7.03125 C 7.898438 -8.175781 8.1875 -10.035156 8.1875 -12.609375 L 8.1875 -26.359375 C 8.1875 -28.804688 8.296875 -31.125 8.515625 -33.3125 L 2.78125 -33.0625 L 2.78125 -39.28125 C 6.21875 -39.28125 9 -39.523438 11.125 -40.015625 C 13.257812 -40.515625 14.679688 -41.085938 15.390625 -41.734375 L 19.390625 -41.734375 C 19.503906 -40.921875 19.585938 -39.859375 19.640625 -38.546875 C 19.691406 -37.234375 19.71875 -35.953125 19.71875 -34.703125 L 19.890625 -34.703125 C 23.597656 -39.722656 27.523438 -42.234375 31.671875 -42.234375 C 33.742188 -42.234375 35.445312 -41.660156 36.78125 -40.515625 C 38.125 -39.367188 38.796875 -37.675781 38.796875 -35.4375 C 38.796875 -34.019531 38.332031 -32.707031 37.40625 -31.5 C 36.476562 -30.300781 35.085938 -29.703125 33.234375 -29.703125 C 31.867188 -29.703125 30.648438 -30.054688 29.578125 -30.765625 C 28.515625 -31.484375 27.90625 -32.710938 27.75 -34.453125 C 26.21875 -34.453125 24.644531 -33.566406 23.03125 -31.796875 C 21.425781 -30.023438 20.351562 -28.265625 19.8125 -26.515625 L 19.8125 -13.171875 C 19.8125 -10.554688 19.703125 -8.15625 19.484375 -5.96875 C 21.222656 -6.132812 22.992188 -6.21875 24.796875 -6.21875 L 24.796875 0 L 3.359375 0 Z M 3.359375 -5.3125 "/></g></g></g><g fill="#000000" fill-opacity="1"><g transform="translate(1024.184896, 639.581741)"><g><path d="M 13.59375 1.3125 C 10.15625 1.3125 7.4375 0.289062 5.4375 -1.75 C 3.445312 -3.800781 2.453125 -6.410156 2.453125 -9.578125 C 2.453125 -14.378906 4.6875 -18.019531 9.15625 -20.5 C 13.632812 -22.976562 19.015625 -24.359375 25.296875 -24.640625 L 25.296875 -28.890625 C 25.296875 -33.859375 23.4375 -36.34375 19.71875 -36.34375 C 17.320312 -36.34375 15.359375 -35.578125 13.828125 -34.046875 C 14.484375 -33.285156 14.8125 -32.25 14.8125 -30.9375 C 14.8125 -29.625 14.359375 -28.445312 13.453125 -27.40625 C 12.554688 -26.375 11.238281 -25.859375 9.5 -25.859375 C 7.851562 -25.859375 6.566406 -26.390625 5.640625 -27.453125 C 4.710938 -28.515625 4.25 -29.835938 4.25 -31.421875 C 4.25 -33.554688 5.015625 -35.441406 6.546875 -37.078125 C 8.078125 -38.710938 10.164062 -39.976562 12.8125 -40.875 C 15.457031 -41.78125 18.363281 -42.234375 21.53125 -42.234375 C 31.625 -42.234375 36.671875 -37.019531 36.671875 -26.59375 L 36.578125 -13.171875 C 36.578125 -10.554688 36.46875 -8.15625 36.25 -5.96875 C 38.050781 -6.132812 39.828125 -6.21875 41.578125 -6.21875 L 41.578125 0 L 26.109375 0 C 25.992188 -0.707031 25.882812 -1.960938 25.78125 -3.765625 L 25.703125 -3.765625 C 22.367188 -0.378906 18.332031 1.3125 13.59375 1.3125 Z M 18.75 -6.71875 C 21.195312 -6.71875 23.347656 -7.695312 25.203125 -9.65625 L 25.203125 -18.828125 C 21.984375 -18.492188 19.320312 -17.671875 17.21875 -16.359375 C 15.125 -15.054688 14.078125 -13.285156 14.078125 -11.046875 C 14.078125 -9.578125 14.523438 -8.488281 15.421875 -7.78125 C 16.328125 -7.070312 17.4375 -6.71875 18.75 -6.71875 Z M 18.75 -6.71875 "/></g></g></g><g fill="#000000" fill-opacity="1"><g transform="translate(1067.06774, 639.581741)"><g><path d="M 19.15625 1.3125 C 15.875 1.3125 12.992188 0.46875 10.515625 -1.21875 C 8.035156 -2.914062 6.097656 -5.332031 4.703125 -8.46875 C 3.316406 -11.601562 2.625 -15.242188 2.625 -19.390625 C 2.625 -23.753906 3.46875 -27.671875 5.15625 -31.140625 C 6.84375 -34.609375 9.226562 -37.320312 12.3125 -39.28125 C 15.394531 -41.25 18.929688 -42.234375 22.921875 -42.234375 C 25.046875 -42.234375 27.472656 -41.742188 30.203125 -40.765625 L 30.203125 -46.15625 C 30.203125 -48.78125 30.3125 -51.179688 30.53125 -53.359375 C 28.726562 -53.191406 26.789062 -53.109375 24.71875 -53.109375 L 24.71875 -59.34375 C 28.15625 -59.34375 30.9375 -59.585938 33.0625 -60.078125 C 35.1875 -60.566406 36.609375 -61.140625 37.328125 -61.796875 L 41.734375 -61.796875 L 41.734375 -13.171875 C 41.734375 -10.554688 41.625 -8.15625 41.40625 -5.96875 C 43.207031 -6.132812 44.984375 -6.21875 46.734375 -6.21875 L 46.734375 0 L 31.1875 0 L 30.765625 -3.765625 L 30.6875 -3.765625 C 27.46875 -0.378906 23.625 1.3125 19.15625 1.3125 Z M 23.40625 -6.140625 C 24.769531 -6.140625 26.050781 -6.492188 27.25 -7.203125 C 28.445312 -7.910156 29.429688 -8.863281 30.203125 -10.0625 L 30.203125 -34.625 C 29.597656 -35.0625 28.75 -35.425781 27.65625 -35.71875 C 26.570312 -36.019531 25.484375 -36.171875 24.390625 -36.171875 C 20.898438 -36.117188 18.40625 -34.617188 16.90625 -31.671875 C 15.40625 -28.722656 14.65625 -25.039062 14.65625 -20.625 C 14.65625 -16.695312 15.375 -13.300781 16.8125 -10.4375 C 18.257812 -7.570312 20.457031 -6.140625 23.40625 -6.140625 Z M 23.40625 -6.140625 "/></g></g></g><g fill="#000000" fill-opacity="1"><g transform="translate(1115.842912, 639.581741)"><g><path d="M 13.59375 1.3125 C 10.15625 1.3125 7.4375 0.289062 5.4375 -1.75 C 3.445312 -3.800781 2.453125 -6.410156 2.453125 -9.578125 C 2.453125 -14.378906 4.6875 -18.019531 9.15625 -20.5 C 13.632812 -22.976562 19.015625 -24.359375 25.296875 -24.640625 L 25.296875 -28.890625 C 25.296875 -33.859375 23.4375 -36.34375 19.71875 -36.34375 C 17.320312 -36.34375 15.359375 -35.578125 13.828125 -34.046875 C 14.484375 -33.285156 14.8125 -32.25 14.8125 -30.9375 C 14.8125 -29.625 14.359375 -28.445312 13.453125 -27.40625 C 12.554688 -26.375 11.238281 -25.859375 9.5 -25.859375 C 7.851562 -25.859375 6.566406 -26.390625 5.640625 -27.453125 C 4.710938 -28.515625 4.25 -29.835938 4.25 -31.421875 C 4.25 -33.554688 5.015625 -35.441406 6.546875 -37.078125 C 8.078125 -38.710938 10.164062 -39.976562 12.8125 -40.875 C 15.457031 -41.78125 18.363281 -42.234375 21.53125 -42.234375 C 31.625 -42.234375 36.671875 -37.019531 36.671875 -26.59375 L 36.578125 -13.171875 C 36.578125 -10.554688 36.46875 -8.15625 36.25 -5.96875 C 38.050781 -6.132812 39.828125 -6.21875 41.578125 -6.21875 L 41.578125 0 L 26.109375 0 C 25.992188 -0.707031 25.882812 -1.960938 25.78125 -3.765625 L 25.703125 -3.765625 C 22.367188 -0.378906 18.332031 1.3125 13.59375 1.3125 Z M 18.75 -6.71875 C 21.195312 -6.71875 23.347656 -7.695312 25.203125 -9.65625 L 25.203125 -18.828125 C 21.984375 -18.492188 19.320312 -17.671875 17.21875 -16.359375 C 15.125 -15.054688 14.078125 -13.285156 14.078125 -11.046875 C 14.078125 -9.578125 14.523438 -8.488281 15.421875 -7.78125 C 16.328125 -7.070312 17.4375 -6.71875 18.75 -6.71875 Z M 18.75 -6.71875 "/></g></g></g><g fill="#000000" fill-opacity="1"><g transform="translate(1158.725702, 639.581741)"><g/></g></g><g fill="#000000" fill-opacity="1"><g transform="translate(1180.24893, 639.581741)"><g><path d="M 10.234375 1.3125 C 8.484375 1.3125 7.035156 0.695312 5.890625 -0.53125 C 4.742188 -1.757812 4.171875 -3.273438 4.171875 -5.078125 C 4.171875 -6.816406 4.769531 -8.3125 5.96875 -9.5625 C 7.175781 -10.820312 8.570312 -11.453125 10.15625 -11.453125 C 11.84375 -11.453125 13.242188 -10.820312 14.359375 -9.5625 C 15.484375 -8.3125 16.046875 -6.816406 16.046875 -5.078125 C 16.046875 -3.273438 15.515625 -1.757812 14.453125 -0.53125 C 13.390625 0.695312 11.984375 1.3125 10.234375 1.3125 Z M 10.234375 -31.671875 C 8.484375 -31.671875 7.035156 -32.285156 5.890625 -33.515625 C 4.742188 -34.742188 4.171875 -36.257812 4.171875 -38.0625 C 4.171875 -39.800781 4.769531 -41.296875 5.96875 -42.546875 C 7.175781 -43.804688 8.570312 -44.4375 10.15625 -44.4375 C 11.84375 -44.4375 13.242188 -43.804688 14.359375 -42.546875 C 15.484375 -41.296875 16.046875 -39.800781 16.046875 -38.0625 C 16.046875 -36.257812 15.515625 -34.742188 14.453125 -33.515625 C 13.390625 -32.285156 11.984375 -31.671875 10.234375 -31.671875 Z M 10.234375 -31.671875 "/></g></g></g><g fill="#000000" fill-opacity="1"><g transform="translate(1200.544614, 639.581741)"><g><path d="M 23.40625 -59.328125 C 20.832031 -55.890625 18.769531 -51.617188 17.21875 -46.515625 C 15.664062 -41.421875 14.570312 -36.441406 13.9375 -31.578125 C 13.3125 -26.722656 13 -22.710938 13 -19.546875 C 13 -16.390625 13.3125 -12.460938 13.9375 -7.765625 C 14.570312 -3.078125 15.664062 1.75 17.21875 6.71875 C 18.769531 11.6875 20.832031 15.890625 23.40625 19.328125 L 20.453125 22.1875 C 17.453125 19.457031 14.546875 15.953125 11.734375 11.671875 C 8.921875 7.390625 6.585938 2.535156 4.734375 -2.890625 C 2.878906 -8.328125 1.953125 -13.878906 1.953125 -19.546875 C 1.953125 -25.222656 2.878906 -30.859375 4.734375 -36.453125 C 6.585938 -42.046875 8.929688 -47.066406 11.765625 -51.515625 C 14.609375 -55.960938 17.476562 -59.519531 20.375 -62.1875 Z M 23.40625 -59.328125 "/></g></g></g></svg>